# xmcd CD database file
#
# Track frame offsets:
#	150
#	7912
#	20400
#	33015
#	47325
#	57600
#	70625
#	85260
#	93885
#	105435
#	126300
#	138810
#	144900
#	156360
#	168262
#	182437
#	192487
#	203235
#	214837
#	226762
#
# Disc length: 3170 seconds
#
# Revision: 0
# Processed by: cddbd v1.4PL0 Copyright (c) Steve Scherf et al.
# Submitted via: CDex 1.51
#
DISCID=fb0c6014
DTITLE=Various Artist - Mambo 1
DYEAR=1900
DGENRE=New Age
TTITLE0=Mambo No. 8
TTITLE1=Tequila
TTITLE2=Carmen
TTITLE3=Le Mucura
TTITLE4=Matilda
TTITLE5=Plaza Stomp
TTITLE6=Oye Le Que Tiene El Mambo
TTITLE7=El Cumbanchero
TTITLE8=Pito Joe
TTITLE9=Go-go Mambo
TTITLE10=El bobo de la Yuca
TTITLE11=El Manisero
TTITLE12=Cool
TTITLE13=Nuevo Mambo
TTITLE14=Mambo en Sax
TTITLE15=Lupita
TTITLE16=Undecided
TTITLE17=La Nina Popoff
TTITLE18=Siga la gente
TTITLE19=Que Rico el Mambo
EXTD=
EXTT0=
EXTT1=
EXTT2=
EXTT3=
EXTT4=
EXTT5=
EXTT6=
EXTT7=
EXTT8=
EXTT9=
EXTT10=
EXTT11=
EXTT12=
EXTT13=
EXTT14=
EXTT15=
EXTT16=
EXTT17=
EXTT18=
EXTT19=
PLAYORDER=
